<?xml version="1.0" encoding="utf-8"?>
<svg version="1.1" xmlns:xlink="http://www.w3.org/1999/xlink" width="80px" height="24px" xmlns="http://www.w3.org/2000/svg">
  <g transform="matrix(1 0 0 1 -738 -276 )">
    <path d="M 738 276  L 818 276  L 818 300  L 738 300  L 738 276  " fill-rule="nonzero" fill="#cccccc" stroke="none" />
    <path d="M 740 278  L 816 278  L 816 298  L 740 298  L 740 278  " fill-rule="nonzero" fill="#ffffff" stroke="none" />
    <path d="M 781.4 283.2  C 780.392 283.2  779.6 282.408  779.6 281.4  C 779.6 280.392  780.392 279.6  781.4 279.6  C 782.408 279.6  783.2 280.392  783.2 281.4  C 783.2 282.408  782.408 283.2  781.4 283.2  " fill-rule="nonzero" fill="#cccccc" stroke="none" />
    <path d="M 741 298  L 741 287.55  L 759.75 282.8  L 786 294.58  L 801 285.65  L 816 294.58  L 816 298  L 741 298  " fill-rule="nonzero" fill="#169bd5" stroke="none" />
  </g>
</svg>