<?xml version="1.0" encoding="utf-8"?>
<svg version="1.1" xmlns:xlink="http://www.w3.org/1999/xlink" width="30px" height="38px" xmlns="http://www.w3.org/2000/svg">
  <g transform="matrix(1 0 0 1 -533 -495 )">
    <path d="M 22.4666666796875 31.5333333203125  C 22.3777777734375 30.8222222265625  21.933333359375 30.3777777734375  21.2222222265625 30  L 8.955555546875 30  C 8.244444453125 30.3777777734375  7.71111109375 30.91111109375  7.71111109375 31.5333333203125  C 7.71111109375 32.2444444140625  8.2444444140625 32.6888888671875  8.955555546875 32  L 21.2222222265625 32  C 21.9333333203125 32.68888890625  22.4666666796875 32.1555555859375  22.4666666796875 31.5333333203125  Z M 9.48888890625 35  L 13.844444453125 37.1333333203125  C 14.555555546875 37.4  15.355555546875 37.4  16.0666666796875 37.1333333203125  L 20.6 35  L 9.48888890625 35  Z M 29.6666666796875 13.844444453125  C 29.6666666796875 10.2  28.244444453125 7  25.31111109375 4.244444453125  C 22.4666666796875 1.48888890625  19 0.155555546875007  15 0.155555546875007  C 10.91111109375 0.155555546875007  7.5333333203125 1.4888888671875  4.68888890625 4.244444453125  C 1.755555546875 7  0.3333333203125 10.2  0.3333333203125 14.0222222265625  C 0.3333333203125 14.555555546875  0.3333333203125 15.08888890625  0.4222222265625 15.6222222265625  C 0.4222222265625 15.7111111328125  0.511111132812499 15.88888890625  0.511111093749999 15.9777777734375  C 0.6 16.51111109375  0.6 16.8666666796875  0.777777773437499 17.31111109375  L 0.777777773437499 17.48888890625  C 0.955555546874999 18.0222222265625  1.044444453125 18.3777778125  1.2222222265625 18.8222222265625  L 1.2222222265625 18.91111109375  C 1.2222222265625 19  1.2222222265625 19  1.31111109375 19  C 1.4888888671875 19.5333333203125  1.755555546875 19.9777777734375  1.9333333203125 20.4222222265625  C 1.9333333203125 20.5111111328125  1.9333333203125 20.5111111328125  2.0222222265625 20.51111109375  C 2.555555546875 21.4888888671875  3.1777777734375 22.2888888671875  3.88888890625 23.1777777734375  L 4.955555546875 24.155555546875  C 5.1333333203125 24.3333333203125  5.2222222265625 24.3333333203125  5.2222222265625 24.3333333203125  L 5.48888890625 24.6  L 5.755555546875 24.7777777734375  L 6.4666666796875 25.31111109375  L 6.555555546875 25.4  C 6.644444453125 25.48888890625  6.644444453125 25.48888890625  6.7333333203125 25.48888890625  C 7.1777777734375 25.844444453125  7.4444444140625 26.2  7.71111109375 26.644444453125  C 7.9777777734375 27.08888890625  8.155555546875 27.355555546875  8.3333333203125 27.6222222265625  C 8.51111109375 27.8  8.955555546875 27.88888890625  9.48888890625 27.88888890625  L 20.51111109375 27.88888890625  C 21.0444444140625 27.88888890625  21.4888888671875 27.8  21.6666666796875 27.6222222265625  C 21.844444453125 27.444444453125  22.1111111328125 27.08888890625  22.28888890625 26.644444453125  C 22.4666666796875 26.2  22.8222222265625 25.844444453125  23.2666666796875 25.48888890625  L 23.355555546875 25.4  L 23.5333333203125 25.31111109375  L 24.244444453125 24.7777777734375  C 24.244444453125 24.6888888671875  24.4222222265625 24.6  24.51111109375 24.6  L 24.955555546875 24.155555546875  L 25.044444453125 24.0666666796875  C 25.48888890625 23.7111111328125  25.844444453125 23.3555555859375  26.11111109375 23.08888890625  C 26.466666640625 22.644444453125  26.8222221875 22.2  27.08888890625 21.755555546875  C 27.3555555859375 21.31111109375  27.7111111328125 20.866666640625  27.88888890625 20.3333333203125  C 27.9777778125 20.3333333203125  27.9777778125 20.3333333203125  27.9777777734375 20.244444453125  C 28.155555546875 19.88888890625  28.4222222265625 19.355555546875  28.6 18.8222222265625  L 28.68888890625 18.7333333203125  L 28.68888890625 18.644444453125  C 28.8666666796875 18.28888890625  28.9555555859375 17.844444453125  29.1333333203125 17.31111109375  C 29.1333333203125 17.2222221875  29.1333333203125 17.1333333203125  29.2222222265625 17.1333333203125  L 29.48888890625 15.8  C 29.48888890625 15.71111109375  29.48888890625 15.5333333203125  29.5777777734375 15.444444453125  C 29.6666666796875 14.9111111328125  29.6666666796875 14.3777777734375  29.6666666796875 13.844444453125  Z M 26.11111109375 10.7333333203125  C 26.3777777734375 11.4444444140625  26.11111109375 12.066666640625  25.5777777734375 12.3333333203125  C 25.4 12.4222222265625  25.31111109375 12.4222222265625  25.1333333203125 12.4222222265625  C 24.6888888671875 12.4222222265625  24.3333333203125 12.155555546875  24.155555546875 11.8  C 23.71111109375 10.7333333203125  23 9.755555546875  22.0222222265625 8.8666666796875  C 20.955555546875 7.8  19.7111111328125 7.08888890625001  18.3777777734375 6.644444453125  C 17.844444453125 6.46666667968751  17.4888888671875 5.84444445312499  17.6666666796875 5.22222222656249  C 17.844444453125 4.68888890625  18.4666666796875 4.33333332031251  19.08888890625 4.51111109375  C 20.68888890625 5.0444444140625  22.2 5.9333333203125  23.5333333203125 7.1777777734375  C 24.6888888671875 8.244444453125  25.5777777734375 9.4888888671875  26.11111109375 10.7333333203125  Z " fill-rule="nonzero" fill="#008000" stroke="none" transform="matrix(1 0 0 1 533 495 )" />
  </g>
</svg>