<?xml version="1.0" encoding="utf-8"?>
<svg version="1.1" xmlns:xlink="http://www.w3.org/1999/xlink" width="20px" height="20px" xmlns="http://www.w3.org/2000/svg">
  <g transform="matrix(1 0 0 1 -377 -259 )">
    <path d="M 19.1666666601563 10  C 19.1666666601563 15.0625  15.0625 19.1666666601563  10 19.1666666601563  C 4.9375 19.1666666601563  0.83333333984375 15.0625  0.83333333984375 10  C 0.83333333984375 4.9375  4.9375 0.83333333984375  10 0.83333333984375  C 15.0625 0.83333333984375  19.1666666601563 4.9375  19.1666666601563 10  Z M 13.9875 13.1233333398438  L 10.8641666601562 10  L 13.9875 6.87666666015625  C 14.1020956241215 6.76207103603475  14.1664747753937 6.60664601589936  14.1664747753937 6.44458333007813  C 14.1664747753937 6.10710525716555  13.8928947428345 5.83352522460631  13.5554166699219 5.83352522460631  C 13.3933539841006 5.83352522460631  13.2379289639653 5.8979043758785  13.1233333398438 6.0125  L 10 9.13583333984375  L 6.87666666015625 6.0125  C 6.76207103603475 5.8979043758785  6.60664601589936 5.83352522460631  6.44458333007813 5.83352522460631  C 6.10710525716555 5.83352522460631  5.83352522460631 6.10710525716555  5.83352522460631 6.44458333007813  C 5.83352522460631 6.60664601589936  5.8979043758785 6.76207103603475  6.0125 6.87666666015625  L 9.13583333984375 10  L 6.0125 13.1233333398438  C 5.8979043758785 13.2379289639653  5.83352522460631 13.3933539841006  5.83352522460631 13.5554166699219  C 5.83352522460631 13.8928947428345  6.10710525716555 14.1664747753937  6.44458333007813 14.1664747753937  C 6.60664601589936 14.1664747753937  6.76207103603475 14.1020956241215  6.87666666015625 13.9875  L 10 10.8641666601562  L 13.1233333398438 13.9875  C 13.2379289639653 14.1020956241215  13.3933539841006 14.1664747753937  13.5554166699219 14.1664747753937  C 13.8928947428345 14.1664747753937  14.1664747753937 13.8928947428345  14.1664747753937 13.5554166699219  C 14.1664747753937 13.3933539841006  14.1020956241215 13.2379289639653  13.9875 13.1233333398438  Z " fill-rule="nonzero" fill="#f5222d" stroke="none" transform="matrix(1 0 0 1 377 259 )" />
  </g>
</svg>