<?xml version="1.0" encoding="utf-8"?>
<svg version="1.1" xmlns:xlink="http://www.w3.org/1999/xlink" width="11px" height="21px" xmlns="http://www.w3.org/2000/svg">
  <g transform="matrix(1 0 0 1 -347 -401 )">
    <path d="M 0.232769897153485 20.7608135889442  C 0.543428979221861 21.0797288036852  1.04689416483249 21.0797288036852  1.35755324690087 20.7608135889442  C 4.48882919578332 17.5455876646952  7.62003035022011 14.3307073231896  10.7516055182996 11.1157885859636  C 11.0827981605668 10.7754843612505  11.0827981605668 10.2242468261867  10.7516055182996 9.88421141403637  L 1.35755324690087 0.23918641105584  C 1.04689416483249 -0.0797288036852995  0.543428979221861 -0.0797288036852995  0.232769897153485 0.23918641105584  C -0.0775899657178282 0.557832813234168  -0.0775899657178282 1.07477882429815  0.232769897153485 1.39369401777915  C 3.1892673988619 4.42916774090643  6.14580229779316 7.46437267273115  9.10226238157154 10.4998463958584  C 6.14580227708593 13.5353585147061  3.18926737815468 16.5708322378334  0.232769897153485 19.6063059822208  C -0.0775899657178282 19.9249523843992  -0.0775899657178282 20.4418599784827  0.232769897153485 20.7608135889442  Z " fill-rule="nonzero" fill="#aeaeae" stroke="none" transform="matrix(1 0 0 1 347 401 )" />
  </g>
</svg>