<?xml version="1.0" encoding="utf-8"?>
<svg version="1.1" xmlns:xlink="http://www.w3.org/1999/xlink" width="11px" height="21px" xmlns="http://www.w3.org/2000/svg">
  <g transform="matrix(1 0 0 1 -355 -401 )">
    <path d="M 0.232995895586433 20.7608135889442  C 0.543357868470322 21.0797288036852  1.04686389512381 21.0797288036852  1.35748767105461 20.7608135889442  C 4.48878490822986 17.5458948517182  7.62030657168228 14.3310145314726  10.7516038295649 11.1157885859636  C 11.0827987234784 10.7757915695336  11.0827987234784 10.2242468261867  10.7516038295649 9.88421141403637  L 1.35748767105461 0.23918641105584  C 1.04686387441648 -0.0797288036852995  0.543357868470322 -0.0797288036852995  0.232995895586433 0.23918641105584  C -0.0776652985287918 0.558140021517241  -0.0776652985287918 1.07477882429815  0.232995895586433 1.39369401777915  C 3.18925167358464 4.42916774090643  6.14576927533709 7.46464146403377  9.10228687708955 10.4998463958584  C 6.14580667281418 13.5353585147061  3.18925167358464 16.5708322378334  0.232995895586433 19.6063059822208  C -0.0776652985287918 19.9252595926823  -0.0776652985287918 20.4421671867658  0.232995895586433 20.7608135889442  Z " fill-rule="nonzero" fill="#aeaeae" stroke="none" transform="matrix(1 0 0 1 355 401 )" />
  </g>
</svg>