<svg xmlns="http://www.w3.org/2000/svg" class="icon" viewBox="0 0 1024 1024" width="200" height="200" t="1575625874260" p-id="5913" version="1.1"><path fill="#4d4d4d" d="M 512 830.5 c -159.7 0 -311.6 -50.4 -439.2 -145.7 c -6.5 -4.8 -7.8 -14 -3 -20.5 s 14 -7.8 20.5 -3 c 122.5 91.6 268.3 140 421.7 140 s 299.2 -48.4 421.7 -139.9 c 6.5 -4.8 15.6 -3.5 20.5 3 c 4.8 6.5 3.5 15.6 -3 20.5 C 823.6 780.1 671.7 830.5 512 830.5 Z M 317.9 535.1 c -24.2 0 -43.9 -19.6 -43.9 -43.9 V 237.4 c 0 -24.2 19.6 -43.9 43.9 -43.9 s 43.9 19.6 43.9 43.9 v 253.8 c -0.1 24.2 -19.7 43.9 -43.9 43.9 Z M 706.1 535.1 c -24.2 0 -43.9 -19.6 -43.9 -43.9 V 237.4 c 0 -24.2 19.6 -43.9 43.9 -43.9 s 43.9 19.6 43.9 43.9 v 253.8 c 0 24.2 -19.6 43.9 -43.9 43.9 Z" p-id="5914" /></svg>